<?xml version="1.0" encoding="utf-8"?><svg xmlns="http://www.w3.org/2000/svg" xmlns:xlink="http://www.w3.org/1999/xlink" width="2188" height="761" preserveAspectRatio="xMidYMid" viewBox="0 0 2188 761" style="z-index:1;margin-right:-2px;display:block;background-repeat-y:initial;background-repeat-x:initial;background-color:rgb(241, 242, 243);animation-play-state:paused" ><g transform="translate(1094,380.5) scale(1,1) translate(-1094,-380.5)" style="transform:matrix(1, 0, 0, 1, 0, 0);animation-play-state:paused" ><g id="bk-0.12697382771360122" style="animation-play-state:paused" ><path d="M 1054 319 L 926 316 L 1045 547 Z" stroke="#ffffff" fill="#ffffff" style="animation-play-state:paused" ></path>
<path d="M 926 316 L 902 594 L 1045 547 Z" stroke="#f1f1f1" fill="#f1f1f1" style="animation-play-state:paused" ></path>
<path d="M 1005 288 L 848 305 L 926 316 Z" stroke="#fbfbfb" fill="#fbfbfb" style="animation-play-state:paused" ></path>
<path d="M 1054 319 L 1005 288 L 926 316 Z" stroke="#fcfcfc" fill="#fcfcfc" style="animation-play-state:paused" ></path>
<path d="M 712 433 L 856 559 L 926 316 Z" stroke="#fefefe" fill="#fefefe" style="animation-play-state:paused" ></path>
<path d="M 926 316 L 856 559 L 902 594 Z" stroke="#f6f6f6" fill="#f6f6f6" style="animation-play-state:paused" ></path>
<path d="M 842 307 L 712 433 L 926 316 Z" stroke="#fcfcfc" fill="#fcfcfc" style="animation-play-state:paused" ></path>
<path d="M 1045 547 L 1215 313 L 1054 319 Z" stroke="#fbfbfb" fill="#fbfbfb" style="animation-play-state:paused" ></path>
<path d="M 1054 319 L 1269 278 L 1005 288 Z" stroke="#fdfdfd" fill="#fdfdfd" style="animation-play-state:paused" ></path>
<path d="M 942 696 L 995 668 L 902 594 Z" stroke="#d2d2d2" fill="#d2d2d2" style="animation-play-state:paused" ></path>
<path d="M 902 594 L 995 668 L 1045 547 Z" stroke="#d7d7d7" fill="#d7d7d7" style="animation-play-state:paused" ></path>
<path d="M 1045 547 L 1258 597 L 1215 313 Z" stroke="#e0e0e0" fill="#e0e0e0" style="animation-play-state:paused" ></path>
<path d="M 856 559 L 942 696 L 902 594 Z" stroke="#dcdcdc" fill="#dcdcdc" style="animation-play-state:paused" ></path>
<path d="M 995 668 L 1258 597 L 1045 547 Z" stroke="#cdcdcd" fill="#cdcdcd" style="animation-play-state:paused" ></path>
<path d="M 848 305 L 842 307 L 926 316 Z" stroke="#fbfbfb" fill="#fbfbfb" style="animation-play-state:paused" ></path>
<path d="M 1351 301 L 1269 278 L 1215 313 Z" stroke="#fefefe" fill="#fefefe" style="animation-play-state:paused" ></path>
<path d="M 1215 313 L 1269 278 L 1054 319 Z" stroke="#fdfdfd" fill="#fdfdfd" style="animation-play-state:paused" ></path>
<path d="M 856 559 L 811 708 L 942 696 Z" stroke="#d9d9d9" fill="#d9d9d9" style="animation-play-state:paused" ></path>
<path d="M 1045 846 L 1269 695 L 995 668 Z" stroke="#b6b6b6" fill="#b6b6b6" style="animation-play-state:paused" ></path>
<path d="M 684 627 L 811 708 L 856 559 Z" stroke="#e5e5e5" fill="#e5e5e5" style="animation-play-state:paused" ></path>
<path d="M 727 208 L 598 472 L 712 433 Z" stroke="#fbfbfb" fill="#fbfbfb" style="animation-play-state:paused" ></path>
<path d="M 712 433 L 598 472 L 856 559 Z" stroke="#fefefe" fill="#fefefe" style="animation-play-state:paused" ></path>
<path d="M 1269 278 L 1041 82 L 1005 288 Z" stroke="#fafafa" fill="#fafafa" style="animation-play-state:paused" ></path>
<path d="M 1005 288 L 957 160 L 848 305 Z" stroke="#fafafa" fill="#fafafa" style="animation-play-state:paused" ></path>
<path d="M 848 305 L 957 160 L 842 307 Z" stroke="#fafafa" fill="#fafafa" style="animation-play-state:paused" ></path>
<path d="M 1041 82 L 957 160 L 1005 288 Z" stroke="#f8f8f8" fill="#f8f8f8" style="animation-play-state:paused" ></path>
<path d="M 842 307 L 727 208 L 712 433 Z" stroke="#fafafa" fill="#fafafa" style="animation-play-state:paused" ></path>
<path d="M 1045 846 L 995 668 L 942 696 Z" stroke="#c0c0c0" fill="#c0c0c0" style="animation-play-state:paused" ></path>
<path d="M 995 668 L 1269 695 L 1258 597 Z" stroke="#bdbdbd" fill="#bdbdbd" style="animation-play-state:paused" ></path>
<path d="M 1385 515 L 1215 313 L 1258 597 Z" stroke="#d9d9d9" fill="#d9d9d9" style="animation-play-state:paused" ></path>
<path d="M 1385 515 L 1351 301 L 1215 313 Z" stroke="#f0f0f0" fill="#f0f0f0" style="animation-play-state:paused" ></path>
<path d="M 598 472 L 708 548 L 856 559 Z" stroke="#fefefe" fill="#fefefe" style="animation-play-state:paused" ></path>
<path d="M 1324 657 L 1385 515 L 1258 597 Z" stroke="#bdbdbd" fill="#bdbdbd" style="animation-play-state:paused" ></path>
<path d="M 876 732 L 1045 846 L 942 696 Z" stroke="#c2c2c2" fill="#c2c2c2" style="animation-play-state:paused" ></path>
<path d="M 833 32 L 727 208 L 842 307 Z" stroke="#f7f7f7" fill="#f7f7f7" style="animation-play-state:paused" ></path>
<path d="M 598 472 L 487 582 L 708 548 Z" stroke="#fefefe" fill="#fefefe" style="animation-play-state:paused" ></path>
<path d="M 811 708 L 876 732 L 942 696 Z" stroke="#cfcfcf" fill="#cfcfcf" style="animation-play-state:paused" ></path>
<path d="M 1405 52 L 1279 106 L 1269 278 Z" stroke="#fafafa" fill="#fafafa" style="animation-play-state:paused" ></path>
<path d="M 1269 278 L 1279 106 L 1041 82 Z" stroke="#f9f9f9" fill="#f9f9f9" style="animation-play-state:paused" ></path>
<path d="M 815 -17 L 833 32 L 957 160 Z" stroke="#f4f4f4" fill="#f4f4f4" style="animation-play-state:paused" ></path>
<path d="M 957 160 L 833 32 L 842 307 Z" stroke="#f7f7f7" fill="#f7f7f7" style="animation-play-state:paused" ></path>
<path d="M 1481 367 L 1373 304 L 1351 301 Z" stroke="#f9f9f9" fill="#f9f9f9" style="animation-play-state:paused" ></path>
<path d="M 1351 301 L 1373 304 L 1269 278 Z" stroke="#fefefe" fill="#fefefe" style="animation-play-state:paused" ></path>
<path d="M 487 582 L 684 627 L 708 548 Z" stroke="#fcfcfc" fill="#fcfcfc" style="animation-play-state:paused" ></path>
<path d="M 708 548 L 684 627 L 856 559 Z" stroke="#f1f1f1" fill="#f1f1f1" style="animation-play-state:paused" ></path>
<path d="M 811 708 L 777 773 L 876 732 Z" stroke="#d1d1d1" fill="#d1d1d1" style="animation-play-state:paused" ></path>
<path d="M 572 741 L 777 773 L 811 708 Z" stroke="#dbdbdb" fill="#dbdbdb" style="animation-play-state:paused" ></path>
<path d="M 1269 695 L 1324 657 L 1258 597 Z" stroke="#b4b4b4" fill="#b4b4b4" style="animation-play-state:paused" ></path>
<path d="M 1385 515 L 1481 367 L 1351 301 Z" stroke="#e6e6e6" fill="#e6e6e6" style="animation-play-state:paused" ></path>
<path d="M 1406 770 L 1324 657 L 1269 695 Z" stroke="#a5a5a5" fill="#a5a5a5" style="animation-play-state:paused" ></path>
<path d="M 1041 948 L 1257 801 L 1045 846 Z" stroke="#a6a6a6" fill="#a6a6a6" style="animation-play-state:paused" ></path>
<path d="M 1045 846 L 1257 801 L 1269 695 Z" stroke="#a8a8a8" fill="#a8a8a8" style="animation-play-state:paused" ></path>
<path d="M 922 926 L 1045 846 L 876 732 Z" stroke="#bababa" fill="#bababa" style="animation-play-state:paused" ></path>
<path d="M 1160 -82 L 1036 31 L 1041 82 Z" stroke="#f4f4f4" fill="#f4f4f4" style="animation-play-state:paused" ></path>
<path d="M 1041 82 L 1036 31 L 957 160 Z" stroke="#f6f6f6" fill="#f6f6f6" style="animation-play-state:paused" ></path>
<path d="M 1036 31 L 980 -51 L 957 160 Z" stroke="#f4f4f4" fill="#f4f4f4" style="animation-play-state:paused" ></path>
<path d="M 833 32 L 630 69 L 727 208 Z" stroke="#f4f4f4" fill="#f4f4f4" style="animation-play-state:paused" ></path>
<path d="M 552 426 L 487 582 L 598 472 Z" stroke="#fdfdfd" fill="#fdfdfd" style="animation-play-state:paused" ></path>
<path d="M 691 29 L 630 69 L 833 32 Z" stroke="#f2f2f2" fill="#f2f2f2" style="animation-play-state:paused" ></path>
<path d="M 1373 304 L 1405 52 L 1269 278 Z" stroke="#fcfcfc" fill="#fcfcfc" style="animation-play-state:paused" ></path>
<path d="M 1279 106 L 1160 -82 L 1041 82 Z" stroke="#f5f5f5" fill="#f5f5f5" style="animation-play-state:paused" ></path>
<path d="M 484 224 L 598 472 L 727 208 Z" stroke="#f9f9f9" fill="#f9f9f9" style="animation-play-state:paused" ></path>
<path d="M 630 69 L 484 224 L 727 208 Z" stroke="#f5f5f5" fill="#f5f5f5" style="animation-play-state:paused" ></path>
<path d="M 484 224 L 552 426 L 598 472 Z" stroke="#fafafa" fill="#fafafa" style="animation-play-state:paused" ></path>
<path d="M 1496 565 L 1481 367 L 1385 515 Z" stroke="#cccccc" fill="#cccccc" style="animation-play-state:paused" ></path>
<path d="M 1373 304 L 1464 177 L 1405 52 Z" stroke="#fbfbfb" fill="#fbfbfb" style="animation-play-state:paused" ></path>
<path d="M 581 734 L 572 741 L 684 627 Z" stroke="#ececec" fill="#ececec" style="animation-play-state:paused" ></path>
<path d="M 684 627 L 572 741 L 811 708 Z" stroke="#e5e5e5" fill="#e5e5e5" style="animation-play-state:paused" ></path>
<path d="M 980 -51 L 815 -17 L 957 160 Z" stroke="#f3f3f3" fill="#f3f3f3" style="animation-play-state:paused" ></path>
<path d="M 825 940 L 922 926 L 777 773 Z" stroke="#c1c1c1" fill="#c1c1c1" style="animation-play-state:paused" ></path>
<path d="M 777 773 L 922 926 L 876 732 Z" stroke="#c5c5c5" fill="#c5c5c5" style="animation-play-state:paused" ></path>
<path d="M 1517 672 L 1496 565 L 1324 657 Z" stroke="#aaaaaa" fill="#aaaaaa" style="animation-play-state:paused" ></path>
<path d="M 1324 657 L 1496 565 L 1385 515 Z" stroke="#b9b9b9" fill="#b9b9b9" style="animation-play-state:paused" ></path>
<path d="M 1364 980 L 1406 770 L 1257 801 Z" stroke="#919191" fill="#919191" style="animation-play-state:paused" ></path>
<path d="M 1257 801 L 1406 770 L 1269 695 Z" stroke="#a0a0a0" fill="#a0a0a0" style="animation-play-state:paused" ></path>
<path d="M 1364 -55 L 1160 -82 L 1279 106 Z" stroke="#f4f4f4" fill="#f4f4f4" style="animation-play-state:paused" ></path>
<path d="M 1036 31 L 1017 -94 L 980 -51 Z" stroke="#f2f2f2" fill="#f2f2f2" style="animation-play-state:paused" ></path>
<path d="M 1481 367 L 1464 177 L 1373 304 Z" stroke="#ffffff" fill="#ffffff" style="animation-play-state:paused" ></path>
<path d="M 1405 52 L 1364 -55 L 1279 106 Z" stroke="#f6f6f6" fill="#f6f6f6" style="animation-play-state:paused" ></path>
<path d="M 487 582 L 581 734 L 684 627 Z" stroke="#f6f6f6" fill="#f6f6f6" style="animation-play-state:paused" ></path>
<path d="M 407 640 L 581 734 L 487 582 Z" stroke="#ffffff" fill="#ffffff" style="animation-play-state:paused" ></path>
<path d="M 922 926 L 1041 948 L 1045 846 Z" stroke="#afafaf" fill="#afafaf" style="animation-play-state:paused" ></path>
<path d="M 572 741 L 825 940 L 777 773 Z" stroke="#d3d3d3" fill="#d3d3d3" style="animation-play-state:paused" ></path>
<path d="M 922 926 L 825 940 L 1041 948 Z" stroke="#b5b5b5" fill="#b5b5b5" style="animation-play-state:paused" ></path>
<path d="M 815 -17 L 691 29 L 833 32 Z" stroke="#f2f2f2" fill="#f2f2f2" style="animation-play-state:paused" ></path>
<path d="M 630 69 L 570 134 L 484 224 Z" stroke="#f4f4f4" fill="#f4f4f4" style="animation-play-state:paused" ></path>
<path d="M 1453 749 L 1517 672 L 1324 657 Z" stroke="#9f9f9f" fill="#9f9f9f" style="animation-play-state:paused" ></path>
<path d="M 1496 565 L 1619 444 L 1481 367 Z" stroke="#cccccc" fill="#cccccc" style="animation-play-state:paused" ></path>
<path d="M 1041 948 L 1156 961 L 1257 801 Z" stroke="#9f9f9f" fill="#9f9f9f" style="animation-play-state:paused" ></path>
<path d="M 1406 770 L 1453 749 L 1324 657 Z" stroke="#9d9d9d" fill="#9d9d9d" style="animation-play-state:paused" ></path>
<path d="M 1498 37 L 1364 -55 L 1405 52 Z" stroke="#f6f6f6" fill="#f6f6f6" style="animation-play-state:paused" ></path>
<path d="M 1464 177 L 1498 37 L 1405 52 Z" stroke="#f8f8f8" fill="#f8f8f8" style="animation-play-state:paused" ></path>
<path d="M 1608 78 L 1498 37 L 1464 177 Z" stroke="#f9f9f9" fill="#f9f9f9" style="animation-play-state:paused" ></path>
<path d="M 1663 318 L 1464 177 L 1481 367 Z" stroke="#fcfcfc" fill="#fcfcfc" style="animation-play-state:paused" ></path>
<path d="M 1141 -234 L 1017 -94 L 1160 -82 Z" stroke="#efefef" fill="#efefef" style="animation-play-state:paused" ></path>
<path d="M 1160 -82 L 1017 -94 L 1036 31 Z" stroke="#f2f2f2" fill="#f2f2f2" style="animation-play-state:paused" ></path>
<path d="M 980 -51 L 794 -205 L 815 -17 Z" stroke="#efefef" fill="#efefef" style="animation-play-state:paused" ></path>
<path d="M 815 -17 L 636 -211 L 691 29 Z" stroke="#efefef" fill="#efefef" style="animation-play-state:paused" ></path>
<path d="M 1364 980 L 1453 749 L 1406 770 Z" stroke="#8c8c8c" fill="#8c8c8c" style="animation-play-state:paused" ></path>
<path d="M 604 -91 L 570 134 L 630 69 Z" stroke="#f1f1f1" fill="#f1f1f1" style="animation-play-state:paused" ></path>
<path d="M 411 229 L 329 314 L 552 426 Z" stroke="#f8f8f8" fill="#f8f8f8" style="animation-play-state:paused" ></path>
<path d="M 581 734 L 530 770 L 572 741 Z" stroke="#ebebeb" fill="#ebebeb" style="animation-play-state:paused" ></path>
<path d="M 572 741 L 642 893 L 825 940 Z" stroke="#d4d4d4" fill="#d4d4d4" style="animation-play-state:paused" ></path>
<path d="M 358 783 L 530 770 L 581 734 Z" stroke="#f1f1f1" fill="#f1f1f1" style="animation-play-state:paused" ></path>
<path d="M 1017 -94 L 985 -188 L 980 -51 Z" stroke="#efefef" fill="#efefef" style="animation-play-state:paused" ></path>
<path d="M 691 29 L 604 -91 L 630 69 Z" stroke="#f1f1f1" fill="#f1f1f1" style="animation-play-state:paused" ></path>
<path d="M 530 770 L 642 893 L 572 741 Z" stroke="#e3e3e3" fill="#e3e3e3" style="animation-play-state:paused" ></path>
<path d="M 825 940 L 642 893 L 1041 948 Z" stroke="#bfbfbf" fill="#bfbfbf" style="animation-play-state:paused" ></path>
<path d="M 985 -188 L 794 -205 L 980 -51 Z" stroke="#eeeeee" fill="#eeeeee" style="animation-play-state:paused" ></path>
<path d="M 329 314 L 334 500 L 552 426 Z" stroke="#fafafa" fill="#fafafa" style="animation-play-state:paused" ></path>
<path d="M 552 426 L 334 500 L 487 582 Z" stroke="#fcfcfc" fill="#fcfcfc" style="animation-play-state:paused" ></path>
<path d="M 411 229 L 552 426 L 484 224 Z" stroke="#f7f7f7" fill="#f7f7f7" style="animation-play-state:paused" ></path>
<path d="M 1156 961 L 1364 980 L 1257 801 Z" stroke="#949494" fill="#949494" style="animation-play-state:paused" ></path>
<path d="M 1041 948 L 1364 980 L 1156 961 Z" stroke="#999999" fill="#999999" style="animation-play-state:paused" ></path>
<path d="M 1362 -227 L 1141 -234 L 1160 -82 Z" stroke="#eeeeee" fill="#eeeeee" style="animation-play-state:paused" ></path>
<path d="M 1017 -94 L 1141 -234 L 985 -188 Z" stroke="#eeeeee" fill="#eeeeee" style="animation-play-state:paused" ></path>
<path d="M 570 134 L 411 229 L 484 224 Z" stroke="#f5f5f5" fill="#f5f5f5" style="animation-play-state:paused" ></path>
<path d="M 636 -211 L 604 -91 L 691 29 Z" stroke="#eeeeee" fill="#eeeeee" style="animation-play-state:paused" ></path>
<path d="M 570 134 L 417 110 L 411 229 Z" stroke="#f4f4f4" fill="#f4f4f4" style="animation-play-state:paused" ></path>
<path d="M 1583 507 L 1496 565 L 1543 628 Z" stroke="#b1b1b1" fill="#b1b1b1" style="animation-play-state:paused" ></path>
<path d="M 1583 507 L 1619 444 L 1496 565 Z" stroke="#bebebe" fill="#bebebe" style="animation-play-state:paused" ></path>
<path d="M 1543 628 L 1496 565 L 1517 672 Z" stroke="#a7a7a7" fill="#a7a7a7" style="animation-play-state:paused" ></path>
<path d="M 1617 854 L 1543 628 L 1517 672 Z" stroke="#909090" fill="#909090" style="animation-play-state:paused" ></path>
<path d="M 1617 854 L 1517 672 L 1453 749 Z" stroke="#8c8c8c" fill="#8c8c8c" style="animation-play-state:paused" ></path>
<path d="M 985 -188 L 636 -211 L 794 -205 Z" stroke="#ebebeb" fill="#ebebeb" style="animation-play-state:paused" ></path>
<path d="M 794 -205 L 636 -211 L 815 -17 Z" stroke="#ededed" fill="#ededed" style="animation-play-state:paused" ></path>
<path d="M 216 496 L 407 640 L 334 500 Z" stroke="#fbfbfb" fill="#fbfbfb" style="animation-play-state:paused" ></path>
<path d="M 334 500 L 407 640 L 487 582 Z" stroke="#fdfdfd" fill="#fdfdfd" style="animation-play-state:paused" ></path>
<path d="M 530 770 L 436 887 L 642 893 Z" stroke="#e4e4e4" fill="#e4e4e4" style="animation-play-state:paused" ></path>
<path d="M 229 347 L 334 500 L 329 314 Z" stroke="#f8f8f8" fill="#f8f8f8" style="animation-play-state:paused" ></path>
<path d="M 1619 444 L 1663 318 L 1481 367 Z" stroke="#dfdfdf" fill="#dfdfdf" style="animation-play-state:paused" ></path>
<path d="M 1498 37 L 1557 8 L 1364 -55 Z" stroke="#f5f5f5" fill="#f5f5f5" style="animation-play-state:paused" ></path>
<path d="M 1364 -55 L 1362 -227 L 1160 -82 Z" stroke="#f1f1f1" fill="#f1f1f1" style="animation-play-state:paused" ></path>
<path d="M 1608 78 L 1557 8 L 1498 37 Z" stroke="#f7f7f7" fill="#f7f7f7" style="animation-play-state:paused" ></path>
<path d="M 358 783 L 436 887 L 530 770 Z" stroke="#f2f2f2" fill="#f2f2f2" style="animation-play-state:paused" ></path>
<path d="M 642 893 L 459 1004 L 1041 948 Z" stroke="#cccccc" fill="#cccccc" style="animation-play-state:paused" ></path>
<path d="M 1400 -126 L 1362 -227 L 1364 -55 Z" stroke="#f1f1f1" fill="#f1f1f1" style="animation-play-state:paused" ></path>
<path d="M 360 17 L 570 134 L 604 -91 Z" stroke="#f0f0f0" fill="#f0f0f0" style="animation-play-state:paused" ></path>
<path d="M 360 17 L 417 110 L 570 134 Z" stroke="#f2f2f2" fill="#f2f2f2" style="animation-play-state:paused" ></path>
<path d="M 174 190 L 229 347 L 329 314 Z" stroke="#f5f5f5" fill="#f5f5f5" style="animation-play-state:paused" ></path>
<path d="M 1663 318 L 1608 78 L 1464 177 Z" stroke="#fcfcfc" fill="#fcfcfc" style="animation-play-state:paused" ></path>
<path d="M 1364 980 L 1551 923 L 1453 749 Z" stroke="#838383" fill="#838383" style="animation-play-state:paused" ></path>
<path d="M 407 640 L 358 783 L 581 734 Z" stroke="#fafafa" fill="#fafafa" style="animation-play-state:paused" ></path>
<path d="M 174 190 L 329 314 L 411 229 Z" stroke="#f5f5f5" fill="#f5f5f5" style="animation-play-state:paused" ></path>
<path d="M 407 640 L 177 786 L 358 783 Z" stroke="#fefefe" fill="#fefefe" style="animation-play-state:paused" ></path>
<path d="M 1555 842 L 1617 854 L 1453 749 Z" stroke="#828282" fill="#828282" style="animation-play-state:paused" ></path>
<path d="M 1839 726 L 1683 550 L 1583 507 Z" stroke="#a0a0a0" fill="#a0a0a0" style="animation-play-state:paused" ></path>
<path d="M 508 -202 L 360 17 L 604 -91 Z" stroke="#ededed" fill="#ededed" style="animation-play-state:paused" ></path>
<path d="M 330 169 L 174 190 L 411 229 Z" stroke="#f3f3f3" fill="#f3f3f3" style="animation-play-state:paused" ></path>
<path d="M 1583 507 L 1683 550 L 1619 444 Z" stroke="#bcbcbc" fill="#bcbcbc" style="animation-play-state:paused" ></path>
<path d="M 1619 444 L 1797 387 L 1663 318 Z" stroke="#d8d8d8" fill="#d8d8d8" style="animation-play-state:paused" ></path>
<path d="M 1663 318 L 1685 216 L 1608 78 Z" stroke="#fdfdfd" fill="#fdfdfd" style="animation-play-state:paused" ></path>
<path d="M 1839 726 L 1583 507 L 1543 628 Z" stroke="#9d9d9d" fill="#9d9d9d" style="animation-play-state:paused" ></path>
<path d="M 985 -188 L 508 -202 L 636 -211 Z" stroke="#ebebeb" fill="#ebebeb" style="animation-play-state:paused" ></path>
<path d="M 636 -211 L 508 -202 L 604 -91 Z" stroke="#ebebeb" fill="#ebebeb" style="animation-play-state:paused" ></path>
<path d="M 403 -113 L 508 -202 L 985 -188 Z" stroke="#ebebeb" fill="#ebebeb" style="animation-play-state:paused" ></path>
<path d="M 144 469 L 216 496 L 93 305 Z" stroke="#f7f7f7" fill="#f7f7f7" style="animation-play-state:paused" ></path>
<path d="M 229 347 L 216 496 L 334 500 Z" stroke="#f9f9f9" fill="#f9f9f9" style="animation-play-state:paused" ></path>
<path d="M 330 169 L 411 229 L 417 110 Z" stroke="#f3f3f3" fill="#f3f3f3" style="animation-play-state:paused" ></path>
<path d="M 1689 -156 L 1400 -126 L 1557 8 Z" stroke="#f3f3f3" fill="#f3f3f3" style="animation-play-state:paused" ></path>
<path d="M 1557 8 L 1400 -126 L 1364 -55 Z" stroke="#f3f3f3" fill="#f3f3f3" style="animation-play-state:paused" ></path>
<path d="M 1362 -227 L 1400 -126 L 1141 -234 Z" stroke="#eeeeee" fill="#eeeeee" style="animation-play-state:paused" ></path>
<path d="M 1141 -234 L 1400 -126 L 985 -188 Z" stroke="#eeeeee" fill="#eeeeee" style="animation-play-state:paused" ></path>
<path d="M 1608 78 L 1620 -52 L 1557 8 Z" stroke="#f7f7f7" fill="#f7f7f7" style="animation-play-state:paused" ></path>
<path d="M 1786 74 L 1620 -52 L 1608 78 Z" stroke="#f8f8f8" fill="#f8f8f8" style="animation-play-state:paused" ></path>
<path d="M 1683 550 L 1797 387 L 1619 444 Z" stroke="#c2c2c2" fill="#c2c2c2" style="animation-play-state:paused" ></path>
<path d="M 1551 923 L 1555 842 L 1453 749 Z" stroke="#818181" fill="#818181" style="animation-play-state:paused" ></path>
<path d="M 1617 854 L 1839 726 L 1543 628 Z" stroke="#848484" fill="#848484" style="animation-play-state:paused" ></path>
<path d="M 1797 387 L 1685 216 L 1663 318 Z" stroke="#ededed" fill="#ededed" style="animation-play-state:paused" ></path>
<path d="M 203 878 L 459 1004 L 358 783 Z" stroke="#f8f8f8" fill="#f8f8f8" style="animation-play-state:paused" ></path>
<path d="M 358 783 L 459 1004 L 436 887 Z" stroke="#efefef" fill="#efefef" style="animation-play-state:paused" ></path>
<path d="M 436 887 L 459 1004 L 642 893 Z" stroke="#e3e3e3" fill="#e3e3e3" style="animation-play-state:paused" ></path>
<path d="M 216 496 L 230 602 L 407 640 Z" stroke="#fcfcfc" fill="#fcfcfc" style="animation-play-state:paused" ></path>
<path d="M 200 -65 L 417 110 L 360 17 Z" stroke="#efefef" fill="#efefef" style="animation-play-state:paused" ></path>
<path d="M 200 -65 L 330 169 L 417 110 Z" stroke="#f0f0f0" fill="#f0f0f0" style="animation-play-state:paused" ></path>
<path d="M 1733 768 L 1839 726 L 1617 854 Z" stroke="#777777" fill="#777777" style="animation-play-state:paused" ></path>
<path d="M 1879 547 L 1878 335 L 1797 387 Z" stroke="#c4c4c4" fill="#c4c4c4" style="animation-play-state:paused" ></path>
<path d="M 1930 267 L 1786 74 L 1685 216 Z" stroke="#fdfdfd" fill="#fdfdfd" style="animation-play-state:paused" ></path>
<path d="M 1685 216 L 1786 74 L 1608 78 Z" stroke="#fbfbfb" fill="#fbfbfb" style="animation-play-state:paused" ></path>
<path d="M 1620 -52 L 1689 -156 L 1557 8 Z" stroke="#f4f4f4" fill="#f4f4f4" style="animation-play-state:paused" ></path>
<path d="M 230 602 L 177 786 L 407 640 Z" stroke="#fdfdfd" fill="#fdfdfd" style="animation-play-state:paused" ></path>
<path d="M 88 729 L 177 786 L 230 602 Z" stroke="#fcfcfc" fill="#fcfcfc" style="animation-play-state:paused" ></path>
<path d="M 1555 842 L 1733 768 L 1617 854 Z" stroke="#797979" fill="#797979" style="animation-play-state:paused" ></path>
<path d="M 508 -202 L 403 -113 L 360 17 Z" stroke="#ececec" fill="#ececec" style="animation-play-state:paused" ></path>
<path d="M 97 -158 L 403 -113 L 985 -188 Z" stroke="#ebebeb" fill="#ebebeb" style="animation-play-state:paused" ></path>
<path d="M 403 -113 L 200 -65 L 360 17 Z" stroke="#ededed" fill="#ededed" style="animation-play-state:paused" ></path>
<path d="M 93 305 L 229 347 L 174 190 Z" stroke="#f4f4f4" fill="#f4f4f4" style="animation-play-state:paused" ></path>
<path d="M 93 305 L 216 496 L 229 347 Z" stroke="#f7f7f7" fill="#f7f7f7" style="animation-play-state:paused" ></path>
<path d="M 1699 0 L 1689 -156 L 1620 -52 Z" stroke="#f4f4f4" fill="#f4f4f4" style="animation-play-state:paused" ></path>
<path d="M 1891 -46 L 1699 0 L 1786 74 Z" stroke="#f7f7f7" fill="#f7f7f7" style="animation-play-state:paused" ></path>
<path d="M 1786 74 L 1699 0 L 1620 -52 Z" stroke="#f7f7f7" fill="#f7f7f7" style="animation-play-state:paused" ></path>
<path d="M 155 199 L 174 190 L 57 153 Z" stroke="#f1f1f1" fill="#f1f1f1" style="animation-play-state:paused" ></path>
<path d="M 216 496 L 144 469 L 230 602 Z" stroke="#fafafa" fill="#fafafa" style="animation-play-state:paused" ></path>
<path d="M 1879 547 L 1797 387 L 1683 550 Z" stroke="#b4b4b4" fill="#b4b4b4" style="animation-play-state:paused" ></path>
<path d="M 1797 387 L 1878 335 L 1685 216 Z" stroke="#e7e7e7" fill="#e7e7e7" style="animation-play-state:paused" ></path>
<path d="M 1879 547 L 1683 550 L 1839 726 Z" stroke="#969696" fill="#969696" style="animation-play-state:paused" ></path>
<path d="M 57 153 L 174 190 L 330 169 Z" stroke="#f2f2f2" fill="#f2f2f2" style="animation-play-state:paused" ></path>
<path d="M 123 992 L 203 878 L 177 786 Z" stroke="#fefefe" fill="#fefefe" style="animation-play-state:paused" ></path>
<path d="M 177 786 L 203 878 L 358 783 Z" stroke="#fefefe" fill="#fefefe" style="animation-play-state:paused" ></path>
<path d="M 155 199 L 93 305 L 174 190 Z" stroke="#f3f3f3" fill="#f3f3f3" style="animation-play-state:paused" ></path>
<path d="M 1878 335 L 1930 267 L 1685 216 Z" stroke="#f2f2f2" fill="#f2f2f2" style="animation-play-state:paused" ></path>
<path d="M 1852 633 L 1879 547 L 1839 726 Z" stroke="#8c8c8c" fill="#8c8c8c" style="animation-play-state:paused" ></path>
<path d="M -40 482 L 148 684 L 144 469 Z" stroke="#f9f9f9" fill="#f9f9f9" style="animation-play-state:paused" ></path>
<path d="M 144 469 L 148 684 L 230 602 Z" stroke="#fafafa" fill="#fafafa" style="animation-play-state:paused" ></path>
<path d="M 18 348 L 144 469 L 93 305 Z" stroke="#f5f5f5" fill="#f5f5f5" style="animation-play-state:paused" ></path>
<path d="M 200 -65 L 57 153 L 330 169 Z" stroke="#f0f0f0" fill="#f0f0f0" style="animation-play-state:paused" ></path>
<path d="M 109 -34 L 57 153 L 200 -65 Z" stroke="#ededed" fill="#ededed" style="animation-play-state:paused" ></path>
<path d="M 1555 842 L 1728 998 L 1733 768 Z" stroke="#707070" fill="#707070" style="animation-play-state:paused" ></path>
<path d="M 1824 804 L 1852 633 L 1839 726 Z" stroke="#7a7a7a" fill="#7a7a7a" style="animation-play-state:paused" ></path>
<path d="M 1551 923 L 1728 998 L 1555 842 Z" stroke="#717171" fill="#717171" style="animation-play-state:paused" ></path>
<path d="M 1364 980 L 1728 998 L 1551 923 Z" stroke="#747474" fill="#747474" style="animation-play-state:paused" ></path>
<path d="M 1041 948 L 1728 998 L 1364 980 Z" stroke="#858585" fill="#858585" style="animation-play-state:paused" ></path>
<path d="M 1824 804 L 1839 726 L 1733 768 Z" stroke="#747474" fill="#747474" style="animation-play-state:paused" ></path>
<path d="M 2013 249 L 1930 267 L 1878 335 Z" stroke="#eaeaea" fill="#eaeaea" style="animation-play-state:paused" ></path>
<path d="M 403 -113 L 201 -235 L 200 -65 Z" stroke="#eaeaea" fill="#eaeaea" style="animation-play-state:paused" ></path>
<path d="M 1930 934 L 1824 804 L 1733 768 Z" stroke="#676767" fill="#676767" style="animation-play-state:paused" ></path>
<path d="M 148 684 L 88 729 L 230 602 Z" stroke="#fbfbfb" fill="#fbfbfb" style="animation-play-state:paused" ></path>
<path d="M 30 623 L 88 729 L 148 684 Z" stroke="#fbfbfb" fill="#fbfbfb" style="animation-play-state:paused" ></path>
<path d="M 2013 249 L 1849 65 L 1930 267 Z" stroke="#fefefe" fill="#fefefe" style="animation-play-state:paused" ></path>
<path d="M 1930 267 L 1849 65 L 1786 74 Z" stroke="#fcfcfc" fill="#fcfcfc" style="animation-play-state:paused" ></path>
<path d="M 1699 0 L 1711 -220 L 1689 -156 Z" stroke="#f2f2f2" fill="#f2f2f2" style="animation-play-state:paused" ></path>
<path d="M 2055 527 L 1878 335 L 1879 547 Z" stroke="#b3b3b3" fill="#b3b3b3" style="animation-play-state:paused" ></path>
<path d="M 1891 -46 L 1711 -220 L 1699 0 Z" stroke="#f4f4f4" fill="#f4f4f4" style="animation-play-state:paused" ></path>
<path d="M 1689 -156 L 1711 -220 L 1400 -126 Z" stroke="#f0f0f0" fill="#f0f0f0" style="animation-play-state:paused" ></path>
<path d="M 201 -235 L 109 -34 L 200 -65 Z" stroke="#eaeaea" fill="#eaeaea" style="animation-play-state:paused" ></path>
<path d="M 18 348 L 93 305 L -47 263 Z" stroke="#f3f3f3" fill="#f3f3f3" style="animation-play-state:paused" ></path>
<path d="M 1849 65 L 1891 -46 L 1786 74 Z" stroke="#f8f8f8" fill="#f8f8f8" style="animation-play-state:paused" ></path>
<path d="M 88 729 L 123 992 L 177 786 Z" stroke="#fdfdfd" fill="#fdfdfd" style="animation-play-state:paused" ></path>
<path d="M 203 878 L 123 992 L 459 1004 Z" stroke="#fefefe" fill="#fefefe" style="animation-play-state:paused" ></path>
<path d="M 459 1004 L 123 992 L 1041 948 Z" stroke="#dedede" fill="#dedede" style="animation-play-state:paused" ></path>
<path d="M 93 305 L 155 199 L -47 263 Z" stroke="#f3f3f3" fill="#f3f3f3" style="animation-play-state:paused" ></path>
<path d="M 18 348 L -40 482 L 144 469 Z" stroke="#f6f6f6" fill="#f6f6f6" style="animation-play-state:paused" ></path>
<path d="M 88 729 L 20 973 L 123 992 Z" stroke="#fdfdfd" fill="#fdfdfd" style="animation-play-state:paused" ></path>
<path d="M -47 263 L 155 199 L -102 38 Z" stroke="#f0f0f0" fill="#f0f0f0" style="animation-play-state:paused" ></path>
<path d="M 1970 751 L 1983 672 L 1852 633 Z" stroke="#7b7b7b" fill="#7b7b7b" style="animation-play-state:paused" ></path>
<path d="M 1728 998 L 1930 934 L 1733 768 Z" stroke="#616161" fill="#616161" style="animation-play-state:paused" ></path>
<path d="M -25 739 L 30 623 L -204 802 Z" stroke="#f9f9f9" fill="#f9f9f9" style="animation-play-state:paused" ></path>
<path d="M -40 482 L 30 623 L 148 684 Z" stroke="#f9f9f9" fill="#f9f9f9" style="animation-play-state:paused" ></path>
<path d="M 1983 672 L 1879 547 L 1852 633 Z" stroke="#8d8d8d" fill="#8d8d8d" style="animation-play-state:paused" ></path>
<path d="M 1983 672 L 2055 527 L 1879 547 Z" stroke="#939393" fill="#939393" style="animation-play-state:paused" ></path>
<path d="M 1849 65 L 2047 72 L 1891 -46 Z" stroke="#f8f8f8" fill="#f8f8f8" style="animation-play-state:paused" ></path>
<path d="M 1970 751 L 1852 633 L 1824 804 Z" stroke="#757575" fill="#757575" style="animation-play-state:paused" ></path>
<path d="M 2013 249 L 2050 442 L 2174 348 Z" stroke="#d1d1d1" fill="#d1d1d1" style="animation-play-state:paused" ></path>
<path d="M 2055 527 L 2050 442 L 1878 335 Z" stroke="#bababa" fill="#bababa" style="animation-play-state:paused" ></path>
<path d="M -102 38 L 155 199 L 57 153 Z" stroke="#efefef" fill="#efefef" style="animation-play-state:paused" ></path>
<path d="M -147 676 L 30 623 L -40 482 Z" stroke="#f8f8f8" fill="#f8f8f8" style="animation-play-state:paused" ></path>
<path d="M 2050 442 L 2013 249 L 1878 335 Z" stroke="#d6d6d6" fill="#d6d6d6" style="animation-play-state:paused" ></path>
<path d="M 109 -34 L -102 38 L 57 153 Z" stroke="#ededed" fill="#ededed" style="animation-play-state:paused" ></path>
<path d="M 1930 934 L 1970 751 L 1824 804 Z" stroke="#616161" fill="#616161" style="animation-play-state:paused" ></path>
<path d="M 2174 348 L 2050 442 L 2151 608 Z" stroke="#acacac" fill="#acacac" style="animation-play-state:paused" ></path>
<path d="M 2036 -59 L 1876 -152 L 1891 -46 Z" stroke="#f4f4f4" fill="#f4f4f4" style="animation-play-state:paused" ></path>
<path d="M 1891 -46 L 1876 -152 L 1711 -220 Z" stroke="#f2f2f2" fill="#f2f2f2" style="animation-play-state:paused" ></path>
<path d="M 1711 -220 L 2014 -213 L 1400 -126 Z" stroke="#f0f0f0" fill="#f0f0f0" style="animation-play-state:paused" ></path>
<path d="M 2013 249 L 2047 72 L 1849 65 Z" stroke="#fcfcfc" fill="#fcfcfc" style="animation-play-state:paused" ></path>
<path d="M -128 318 L -40 482 L 18 348 Z" stroke="#f4f4f4" fill="#f4f4f4" style="animation-play-state:paused" ></path>
<path d="M 30 623 L -25 739 L 88 729 Z" stroke="#fafafa" fill="#fafafa" style="animation-play-state:paused" ></path>
<path d="M 201 -235 L 97 -158 L 109 -34 Z" stroke="#e9e9e9" fill="#e9e9e9" style="animation-play-state:paused" ></path>
<path d="M 109 -34 L -88 -105 L -102 38 Z" stroke="#ebebeb" fill="#ebebeb" style="animation-play-state:paused" ></path>
<path d="M 403 -113 L 97 -158 L 201 -235 Z" stroke="#e9e9e9" fill="#e9e9e9" style="animation-play-state:paused" ></path>
<path d="M 1400 -126 L 97 -158 L 985 -188 Z" stroke="#ededed" fill="#ededed" style="animation-play-state:paused" ></path>
<path d="M -77 -142 L -88 -105 L 109 -34 Z" stroke="#e9e9e9" fill="#e9e9e9" style="animation-play-state:paused" ></path>
<path d="M -102 259 L 18 348 L -47 263 Z" stroke="#f2f2f2" fill="#f2f2f2" style="animation-play-state:paused" ></path>
<path d="M 2194 146 L 2036 -59 L 2047 72 Z" stroke="#fafafa" fill="#fafafa" style="animation-play-state:paused" ></path>
<path d="M 2047 72 L 2036 -59 L 1891 -46 Z" stroke="#f7f7f7" fill="#f7f7f7" style="animation-play-state:paused" ></path>
<path d="M -204 802 L 20 973 L -25 739 Z" stroke="#fafafa" fill="#fafafa" style="animation-play-state:paused" ></path>
<path d="M -25 739 L 20 973 L 88 729 Z" stroke="#fbfbfb" fill="#fbfbfb" style="animation-play-state:paused" ></path>
<path d="M -102 259 L -47 263 L -123 135 Z" stroke="#f0f0f0" fill="#f0f0f0" style="animation-play-state:paused" ></path>
<path d="M -102 259 L -128 318 L 18 348 Z" stroke="#f2f2f2" fill="#f2f2f2" style="animation-play-state:paused" ></path>
<path d="M -123 135 L -47 263 L -102 38 Z" stroke="#efefef" fill="#efefef" style="animation-play-state:paused" ></path>
<path d="M -147 676 L -212 483 L -352 526 Z" stroke="#f5f5f5" fill="#f5f5f5" style="animation-play-state:paused" ></path>
<path d="M -128 318 L -212 483 L -40 482 Z" stroke="#f4f4f4" fill="#f4f4f4" style="animation-play-state:paused" ></path>
<path d="M 1728 998 L 2101 906 L 1930 934 Z" stroke="#525252" fill="#525252" style="animation-play-state:paused" ></path>
<path d="M 1930 934 L 2101 906 L 1970 751 Z" stroke="#555555" fill="#555555" style="animation-play-state:paused" ></path>
<path d="M 2151 608 L 2055 527 L 1983 672 Z" stroke="#898989" fill="#898989" style="animation-play-state:paused" ></path>
<path d="M 1041 948 L 2101 906 L 1728 998 Z" stroke="#6e6e6e" fill="#6e6e6e" style="animation-play-state:paused" ></path>
<path d="M 123 992 L 2101 906 L 1041 948 Z" stroke="#a4a4a4" fill="#a4a4a4" style="animation-play-state:paused" ></path>
<path d="M -224 -20 L -123 135 L -102 38 Z" stroke="#ececec" fill="#ececec" style="animation-play-state:paused" ></path>
<path d="M 2174 348 L 2209 222 L 2013 249 Z" stroke="#e7e7e7" fill="#e7e7e7" style="animation-play-state:paused" ></path>
<path d="M 2013 249 L 2209 222 L 2047 72 Z" stroke="#fefefe" fill="#fefefe" style="animation-play-state:paused" ></path>
<path d="M 2050 442 L 2055 527 L 2151 608 Z" stroke="#9c9c9c" fill="#9c9c9c" style="animation-play-state:paused" ></path>
<path d="M 97 -158 L -77 -142 L 109 -34 Z" stroke="#e9e9e9" fill="#e9e9e9" style="animation-play-state:paused" ></path>
<path d="M -88 -105 L -224 -20 L -102 38 Z" stroke="#eaeaea" fill="#eaeaea" style="animation-play-state:paused" ></path>
<path d="M 2151 608 L 1983 672 L 2118 633 Z" stroke="#7f7f7f" fill="#7f7f7f" style="animation-play-state:paused" ></path>
<path d="M -251 361 L -212 483 L -128 318 Z" stroke="#f3f3f3" fill="#f3f3f3" style="animation-play-state:paused" ></path>
<path d="M -212 483 L -147 676 L -40 482 Z" stroke="#f6f6f6" fill="#f6f6f6" style="animation-play-state:paused" ></path>
<path d="M -251 361 L -128 318 L -102 259 Z" stroke="#f2f2f2" fill="#f2f2f2" style="animation-play-state:paused" ></path>
<path d="M 2149 -77 L 2014 -213 L 2036 -59 Z" stroke="#f4f4f4" fill="#f4f4f4" style="animation-play-state:paused" ></path>
<path d="M 2036 -59 L 2014 -213 L 1876 -152 Z" stroke="#f3f3f3" fill="#f3f3f3" style="animation-play-state:paused" ></path>
<path d="M 1876 -152 L 2014 -213 L 1711 -220 Z" stroke="#f0f0f0" fill="#f0f0f0" style="animation-play-state:paused" ></path>
<path d="M 2118 633 L 1983 672 L 2186 830 Z" stroke="#6c6c6c" fill="#6c6c6c" style="animation-play-state:paused" ></path>
<path d="M 2186 830 L 1983 672 L 1970 751 Z" stroke="#666666" fill="#666666" style="animation-play-state:paused" ></path>
<path d="M 2252 170 L 2194 146 L 2209 222 Z" stroke="#ffffff" fill="#ffffff" style="animation-play-state:paused" ></path>
<path d="M 2209 222 L 2194 146 L 2047 72 Z" stroke="#fdfdfd" fill="#fdfdfd" style="animation-play-state:paused" ></path>
<path d="M -147 676 L -204 802 L 30 623 Z" stroke="#f9f9f9" fill="#f9f9f9" style="animation-play-state:paused" ></path>
<path d="M 2101 906 L 2186 830 L 1970 751 Z" stroke="#545454" fill="#545454" style="animation-play-state:paused" ></path>
<path d="M 2338 523 L 2174 348 L 2151 608 Z" stroke="#a1a1a1" fill="#a1a1a1" style="animation-play-state:paused" ></path>
<path d="M -131 -132 L -224 -20 L -88 -105 Z" stroke="#e8e8e8" fill="#e8e8e8" style="animation-play-state:paused" ></path>
<path d="M -370 260 L -251 361 L -102 259 Z" stroke="#f0f0f0" fill="#f0f0f0" style="animation-play-state:paused" ></path>
<path d="M 2302 10 L 2149 -77 L 2194 146 Z" stroke="#f9f9f9" fill="#f9f9f9" style="animation-play-state:paused" ></path>
<path d="M 2194 146 L 2149 -77 L 2036 -59 Z" stroke="#f8f8f8" fill="#f8f8f8" style="animation-play-state:paused" ></path>
<path d="M 2252 170 L 2209 222 L 2174 348 Z" stroke="#ededed" fill="#ededed" style="animation-play-state:paused" ></path>
<path d="M 20 973 L -100 974 L 123 992 Z" stroke="#fcfcfc" fill="#fcfcfc" style="animation-play-state:paused" ></path>
<path d="M -204 802 L -100 974 L 20 973 Z" stroke="#fbfbfb" fill="#fbfbfb" style="animation-play-state:paused" ></path>
<path d="M -238 873 L -100 974 L -204 802 Z" stroke="#f9f9f9" fill="#f9f9f9" style="animation-play-state:paused" ></path>
<path d="M 2101 906 L 2123 965 L 2186 830 Z" stroke="#454545" fill="#454545" style="animation-play-state:paused" ></path>
<path d="M 2323 667 L 2151 608 L 2118 633 Z" stroke="#7a7a7a" fill="#7a7a7a" style="animation-play-state:paused" ></path>
<path d="M -322 112 L -102 259 L -123 135 Z" stroke="#eeeeee" fill="#eeeeee" style="animation-play-state:paused" ></path>
<path d="M -147 676 L -238 873 L -204 802 Z" stroke="#f8f8f8" fill="#f8f8f8" style="animation-play-state:paused" ></path>
<path d="M -77 -142 L -131 -132 L -88 -105 Z" stroke="#e7e7e7" fill="#e7e7e7" style="animation-play-state:paused" ></path>
<path d="M -224 -20 L -322 112 L -123 135 Z" stroke="#ececec" fill="#ececec" style="animation-play-state:paused" ></path>
<path d="M -242 -154 L -131 -132 L -77 -142 Z" stroke="#e7e7e7" fill="#e7e7e7" style="animation-play-state:paused" ></path>
<path d="M -251 361 L -352 526 L -212 483 Z" stroke="#f3f3f3" fill="#f3f3f3" style="animation-play-state:paused" ></path>
<path d="M 2338 523 L 2151 608 L 2323 667 Z" stroke="#818181" fill="#818181" style="animation-play-state:paused" ></path>
<path d="M 2331 416 L 2252 170 L 2174 348 Z" stroke="#d7d7d7" fill="#d7d7d7" style="animation-play-state:paused" ></path>
<path d="M 2323 667 L 2118 633 L 2186 830 Z" stroke="#666666" fill="#666666" style="animation-play-state:paused" ></path>
<path d="M -322 42 L -322 112 L -224 -20 Z" stroke="#eaeaea" fill="#eaeaea" style="animation-play-state:paused" ></path>
<path d="M -251 361 L -499 492 L -352 526 Z" stroke="#f2f2f2" fill="#f2f2f2" style="animation-play-state:paused" ></path>
<path d="M 2302 10 L 2143 -99 L 2149 -77 Z" stroke="#f6f6f6" fill="#f6f6f6" style="animation-play-state:paused" ></path>
<path d="M 2149 -77 L 2143 -99 L 2014 -213 Z" stroke="#f3f3f3" fill="#f3f3f3" style="animation-play-state:paused" ></path>
<path d="M 2014 -213 L 2328 -125 L 1400 -126 Z" stroke="#f2f2f2" fill="#f2f2f2" style="animation-play-state:paused" ></path>
<path d="M 2338 523 L 2331 416 L 2174 348 Z" stroke="#b2b2b2" fill="#b2b2b2" style="animation-play-state:paused" ></path>
<path d="M -352 526 L -367 683 L -147 676 Z" stroke="#f6f6f6" fill="#f6f6f6" style="animation-play-state:paused" ></path>
<path d="M 2264 735 L 2323 667 L 2186 830 Z" stroke="#5c5c5c" fill="#5c5c5c" style="animation-play-state:paused" ></path>
<path d="M 2477 463 L 2468 267 L 2331 416 Z" stroke="#bdbdbd" fill="#bdbdbd" style="animation-play-state:paused" ></path>
<path d="M -322 112 L -370 260 L -102 259 Z" stroke="#eeeeee" fill="#eeeeee" style="animation-play-state:paused" ></path>
<path d="M -352 526 L -499 492 L -367 683 Z" stroke="#f4f4f4" fill="#f4f4f4" style="animation-play-state:paused" ></path>
<path d="M -367 683 L -238 873 L -147 676 Z" stroke="#f7f7f7" fill="#f7f7f7" style="animation-play-state:paused" ></path>
<path d="M 2252 170 L 2259 87 L 2194 146 Z" stroke="#fdfdfd" fill="#fdfdfd" style="animation-play-state:paused" ></path>
<path d="M 2468 267 L 2259 87 L 2252 170 Z" stroke="#ffffff" fill="#ffffff" style="animation-play-state:paused" ></path>
<path d="M -242 -154 L -322 42 L -224 -20 Z" stroke="#e8e8e8" fill="#e8e8e8" style="animation-play-state:paused" ></path>
<path d="M -411 38 L -500 257 L -370 260 Z" stroke="#ececec" fill="#ececec" style="animation-play-state:paused" ></path>
<path d="M 2239 925 L 2264 735 L 2186 830 Z" stroke="#4a4a4a" fill="#4a4a4a" style="animation-play-state:paused" ></path>
<path d="M 2477 463 L 2331 416 L 2338 523 Z" stroke="#a4a4a4" fill="#a4a4a4" style="animation-play-state:paused" ></path>
<path d="M 2259 87 L 2302 10 L 2194 146 Z" stroke="#fbfbfb" fill="#fbfbfb" style="animation-play-state:paused" ></path>
<path d="M 2101 906 L 2239 925 L 2123 965 Z" stroke="#3f3f3f" fill="#3f3f3f" style="animation-play-state:paused" ></path>
<path d="M 2123 965 L 2239 925 L 2186 830 Z" stroke="#404040" fill="#404040" style="animation-play-state:paused" ></path>
<path d="M -238 873 L -307 889 L -100 974 Z" stroke="#f9f9f9" fill="#f9f9f9" style="animation-play-state:paused" ></path>
<path d="M -469 821 L -307 889 L -238 873 Z" stroke="#f7f7f7" fill="#f7f7f7" style="animation-play-state:paused" ></path>
<path d="M -483 670 L -238 873 L -367 683 Z" stroke="#f6f6f6" fill="#f6f6f6" style="animation-play-state:paused" ></path>
<path d="M 97 -158 L -242 -154 L -77 -142 Z" stroke="#e7e7e7" fill="#e7e7e7" style="animation-play-state:paused" ></path>
<path d="M -131 -132 L -242 -154 L -224 -20 Z" stroke="#e7e7e7" fill="#e7e7e7" style="animation-play-state:paused" ></path>
<path d="M -411 38 L -370 260 L -322 112 Z" stroke="#ececec" fill="#ececec" style="animation-play-state:paused" ></path>
<path d="M -411 38 L -322 112 L -322 42 Z" stroke="#eaeaea" fill="#eaeaea" style="animation-play-state:paused" ></path>
<path d="M -370 260 L -500 257 L -251 361 Z" stroke="#efefef" fill="#efefef" style="animation-play-state:paused" ></path>
<path d="M -383 411 L -499 492 L -251 361 Z" stroke="#f2f2f2" fill="#f2f2f2" style="animation-play-state:paused" ></path>
<path d="M -499 492 L -483 670 L -367 683 Z" stroke="#f4f4f4" fill="#f4f4f4" style="animation-play-state:paused" ></path>
<path d="M 2489 -44 L 2302 10 L 2259 87 Z" stroke="#f9f9f9" fill="#f9f9f9" style="animation-play-state:paused" ></path>
<path d="M 2489 -44 L 2328 -125 L 2302 10 Z" stroke="#f7f7f7" fill="#f7f7f7" style="animation-play-state:paused" ></path>
<path d="M 2302 10 L 2328 -125 L 2143 -99 Z" stroke="#f6f6f6" fill="#f6f6f6" style="animation-play-state:paused" ></path>
<path d="M 2143 -99 L 2328 -125 L 2014 -213 Z" stroke="#f3f3f3" fill="#f3f3f3" style="animation-play-state:paused" ></path>
<path d="M -500 257 L -383 411 L -251 361 Z" stroke="#f0f0f0" fill="#f0f0f0" style="animation-play-state:paused" ></path>
<path d="M -499 492 L -469 821 L -483 670 Z" stroke="#f4f4f4" fill="#f4f4f4" style="animation-play-state:paused" ></path>
<path d="M 2477 463 L 2338 523 L 2476 511 Z" stroke="#999999" fill="#999999" style="animation-play-state:paused" ></path>
<path d="M 2331 416 L 2468 267 L 2252 170 Z" stroke="#dedede" fill="#dedede" style="animation-play-state:paused" ></path>
<path d="M 2338 523 L 2323 667 L 2476 511 Z" stroke="#878787" fill="#878787" style="animation-play-state:paused" ></path>
<path d="M 2476 511 L 2323 667 L 2422 601 Z" stroke="#7f7f7f" fill="#7f7f7f" style="animation-play-state:paused" ></path>
<path d="M 2485 765 L 2323 667 L 2264 735 Z" stroke="#5d5d5d" fill="#5d5d5d" style="animation-play-state:paused" ></path>
<path d="M 2491 999 L 2485 765 L 2264 735 Z" stroke="#404040" fill="#404040" style="animation-play-state:paused" ></path>
<path d="M 2485 765 L 2422 601 L 2323 667 Z" stroke="#676767" fill="#676767" style="animation-play-state:paused" ></path>
<path d="M -437 -69 L -411 38 L -322 42 Z" stroke="#e8e8e8" fill="#e8e8e8" style="animation-play-state:paused" ></path>
<path d="M -500 257 L -411 38 L -383 411 Z" stroke="#ededed" fill="#ededed" style="animation-play-state:paused" ></path>
<path d="M -411 38 L -469 821 L -383 411 Z" stroke="#f1f1f1" fill="#f1f1f1" style="animation-play-state:paused" ></path>
<path d="M -383 411 L -469 821 L -499 492 Z" stroke="#f3f3f3" fill="#f3f3f3" style="animation-play-state:paused" ></path>
<path d="M -483 670 L -469 821 L -238 873 Z" stroke="#f6f6f6" fill="#f6f6f6" style="animation-play-state:paused" ></path>
<path d="M 2468 267 L 2503 153 L 2259 87 Z" stroke="#ffffff" fill="#ffffff" style="animation-play-state:paused" ></path>
<path d="M 2617 244 L 2503 153 L 2468 267 Z" stroke="#f0f0f0" fill="#f0f0f0" style="animation-play-state:paused" ></path>
<path d="M 2617 244 L 2468 267 L 2477 463 Z" stroke="#cecece" fill="#cecece" style="animation-play-state:paused" ></path>
<path d="M 2503 153 L 2489 -44 L 2259 87 Z" stroke="#fbfbfb" fill="#fbfbfb" style="animation-play-state:paused" ></path>
<path d="M -469 821 L -459 983 L -307 889 Z" stroke="#f7f7f7" fill="#f7f7f7" style="animation-play-state:paused" ></path>
<path d="M -307 889 L -459 983 L -100 974 Z" stroke="#f8f8f8" fill="#f8f8f8" style="animation-play-state:paused" ></path>
<path d="M -413 -83 L -437 -69 L -322 42 Z" stroke="#e7e7e7" fill="#e7e7e7" style="animation-play-state:paused" ></path>
<path d="M -411 38 L -437 -69 L -469 821 Z" stroke="#eeeeee" fill="#eeeeee" style="animation-play-state:paused" ></path>
<path d="M 97 -158 L -413 -83 L -242 -154 Z" stroke="#e7e7e7" fill="#e7e7e7" style="animation-play-state:paused" ></path>
<path d="M -242 -154 L -413 -83 L -322 42 Z" stroke="#e7e7e7" fill="#e7e7e7" style="animation-play-state:paused" ></path>
<path d="M 2239 925 L 2491 999 L 2264 735 Z" stroke="#393939" fill="#393939" style="animation-play-state:paused" ></path>
<path d="M 2592 856 L 2626 641 L 2422 601 Z" stroke="#5e5e5e" fill="#5e5e5e" style="animation-play-state:paused" ></path>
<path d="M 2591 538 L 2594 393 L 2476 511 Z" stroke="#9d9d9d" fill="#9d9d9d" style="animation-play-state:paused" ></path>
<path d="M 2101 906 L 2491 999 L 2239 925 Z" stroke="#343434" fill="#343434" style="animation-play-state:paused" ></path>
<path d="M 2641 -9 L 2430 -109 L 2489 -44 Z" stroke="#f7f7f7" fill="#f7f7f7" style="animation-play-state:paused" ></path>
<path d="M 2489 -44 L 2430 -109 L 2328 -125 Z" stroke="#f5f5f5" fill="#f5f5f5" style="animation-play-state:paused" ></path>
<path d="M 2328 -125 L 2430 -109 L 1400 -126 Z" stroke="#f4f4f4" fill="#f4f4f4" style="animation-play-state:paused" ></path>
<path d="M 2626 641 L 2476 511 L 2422 601 Z" stroke="#7f7f7f" fill="#7f7f7f" style="animation-play-state:paused" ></path>
<path d="M 2476 511 L 2594 393 L 2477 463 Z" stroke="#a5a5a5" fill="#a5a5a5" style="animation-play-state:paused" ></path>
<path d="M 2503 153 L 2641 -9 L 2489 -44 Z" stroke="#fafafa" fill="#fafafa" style="animation-play-state:paused" ></path>
<path d="M 2594 393 L 2617 244 L 2477 463 Z" stroke="#c0c0c0" fill="#c0c0c0" style="animation-play-state:paused" ></path>
<path d="M 2592 856 L 2422 601 L 2485 765 Z" stroke="#545454" fill="#545454" style="animation-play-state:paused" ></path>
<path d="M 2626 641 L 2591 538 L 2476 511 Z" stroke="#848484" fill="#848484" style="animation-play-state:paused" ></path>
<path d="M 2594 393 L 2591 538 L 2617 244 Z" stroke="#b8b8b8" fill="#b8b8b8" style="animation-play-state:paused" ></path>
<path d="M 2641 -9 L 2594 88 L 2606 -89 Z" stroke="#f9f9f9" fill="#f9f9f9" style="animation-play-state:paused" ></path>
<path d="M 2617 244 L 2594 88 L 2503 153 Z" stroke="#ffffff" fill="#ffffff" style="animation-play-state:paused" ></path>
<path d="M 2606 -89 L 2594 88 L 2617 244 Z" stroke="#fcfcfc" fill="#fcfcfc" style="animation-play-state:paused" ></path>
<path d="M 2594 88 L 2641 -9 L 2503 153 Z" stroke="#fbfbfb" fill="#fbfbfb" style="animation-play-state:paused" ></path>
<path d="M 2491 999 L 2629 988 L 2485 765 Z" stroke="#282828" fill="#282828" style="animation-play-state:paused" ></path>
<path d="M 2626 641 L 2592 856 L 2591 538 Z" stroke="#636363" fill="#636363" style="animation-play-state:paused" ></path>
<path d="M 2629 988 L 2592 856 L 2485 765 Z" stroke="#313131" fill="#313131" style="animation-play-state:paused" ></path>
<path d="M 2591 538 L 2606 -89 L 2617 244 Z" stroke="#ececec" fill="#ececec" style="animation-play-state:paused" ></path>
<path d="M 2641 -9 L 2606 -89 L 2430 -109 Z" stroke="#f6f6f6" fill="#f6f6f6" style="animation-play-state:paused" ></path>
<path d="M 2592 856 L 2606 -89 L 2591 538 Z" stroke="#ababab" fill="#ababab" style="animation-play-state:paused" ></path></g>
<style type="text/css" style="animation-play-state:paused" >#bk-0.12697382771360122 path { stroke-width: 1 }</style></g></svg>